<mxfile host="65bd71144e">
    <diagram id="DiagramaCasoUso" name="Caso de Uso - Alimentando o Futuro">
        <mxGraphModel dx="1530" dy="599" grid="1" gridSize="10" guides="1" tooltips="1" connect="1" arrows="1" fold="1" page="1" pageScale="1" pageWidth="1169" pageHeight="827" math="0" shadow="0">
            <root>
                <mxCell id="0"/>
                <mxCell id="1" parent="0"/>
                <mxCell id="sistema" value="Sistema Alimentando o Futuro" style="swimlane;whiteSpace=wrap;html=1;fillColor=#FFFFFF;strokeColor=#9673a6;" parent="1" vertex="1">
                    <mxGeometry x="300" y="50" width="600" height="700" as="geometry"/>
                </mxCell>
                <mxCell id="login" value="Fazer Login" style="ellipse;whiteSpace=wrap;html=1;fillColor=#FFFFFF;strokeColor=#6c8ebf;" parent="sistema" vertex="1">
                    <mxGeometry x="50" y="50" width="120" height="60" as="geometry"/>
                </mxCell>
                <mxCell id="cadastro" value="Cadastrar-se" style="ellipse;whiteSpace=wrap;html=1;fillColor=#FFFFFF;strokeColor=#6c8ebf;" parent="sistema" vertex="1">
                    <mxGeometry x="200" y="50" width="120" height="60" as="geometry"/>
                </mxCell>
                <mxCell id="logout" value="Fazer Logout" style="ellipse;whiteSpace=wrap;html=1;fillColor=#FFFFFF;strokeColor=#6c8ebf;" parent="sistema" vertex="1">
                    <mxGeometry x="350" y="50" width="120" height="60" as="geometry"/>
                </mxCell>
                <mxCell id="criarHorta" value="Criar Horta" style="ellipse;whiteSpace=wrap;html=1;fillColor=#FFFFFF;strokeColor=#82b366;" parent="sistema" vertex="1">
                    <mxGeometry x="50" y="150" width="120" height="60" as="geometry"/>
                </mxCell>
                <mxCell id="gerenciarHorta" value="Gerenciar Horta" style="ellipse;whiteSpace=wrap;html=1;fillColor=#FFFFFF;strokeColor=#82b366;" parent="sistema" vertex="1">
                    <mxGeometry x="200" y="150" width="120" height="60" as="geometry"/>
                </mxCell>
                <mxCell id="visualizarHortas" value="Visualizar Hortas" style="ellipse;whiteSpace=wrap;html=1;fillColor=#FFFFFF;strokeColor=#82b366;" parent="sistema" vertex="1">
                    <mxGeometry x="350" y="150" width="120" height="60" as="geometry"/>
                </mxCell>
                <mxCell id="registrarColheita" value="Registrar Colheita" style="ellipse;whiteSpace=wrap;html=1;fillColor=#FFFFFF;strokeColor=#d6b656;" parent="sistema" vertex="1">
                    <mxGeometry x="50" y="250" width="120" height="60" as="geometry"/>
                </mxCell>
                <mxCell id="visualizarColheitas" value="Visualizar Colheitas" style="ellipse;whiteSpace=wrap;html=1;fillColor=#FFFFFF;strokeColor=#d6b656;" parent="sistema" vertex="1">
                    <mxGeometry x="200" y="250" width="120" height="60" as="geometry"/>
                </mxCell>
                <mxCell id="consultarReceitas" value="Consultar Receitas" style="ellipse;whiteSpace=wrap;html=1;fillColor=#FFFFFF;strokeColor=#b85450;" parent="sistema" vertex="1">
                    <mxGeometry x="350" y="250" width="120" height="60" as="geometry"/>
                </mxCell>
                <mxCell id="usarChat" value="Usar Chat" style="ellipse;whiteSpace=wrap;html=1;fillColor=#FFFFFF;strokeColor=#9673a6;" parent="sistema" vertex="1">
                    <mxGeometry x="50" y="350" width="120" height="60" as="geometry"/>
                </mxCell>
                <mxCell id="consultarDicas" value="Consultar Dicas" style="ellipse;whiteSpace=wrap;html=1;fillColor=#FFFFFF;strokeColor=#9673a6;" parent="sistema" vertex="1">
                    <mxGeometry x="200" y="350" width="120" height="60" as="geometry"/>
                </mxCell>
                <mxCell id="visualizarDashboard" value="Visualizar Dashboard" style="ellipse;whiteSpace=wrap;html=1;fillColor=#FFFFFF;strokeColor=#6c8ebf;" parent="sistema" vertex="1">
                    <mxGeometry x="350" y="350" width="120" height="60" as="geometry"/>
                </mxCell>
                <mxCell id="gerenciarUsuarios" value="Gerenciar Usuários" style="ellipse;whiteSpace=wrap;html=1;fillColor=#FFFFFF;strokeColor=#ff6666;" parent="sistema" vertex="1">
                    <mxGeometry x="50" y="450" width="120" height="60" as="geometry"/>
                </mxCell>
                <mxCell id="gerenciarSistema" value="Gerenciar Sistema" style="ellipse;whiteSpace=wrap;html=1;fillColor=#FFFFFF;strokeColor=#ff6666;" parent="sistema" vertex="1">
                    <mxGeometry x="200" y="450" width="120" height="60" as="geometry"/>
                </mxCell>
                <mxCell id="visualizarRelatorios" value="Visualizar Relatórios" style="ellipse;whiteSpace=wrap;html=1;fillColor=#FFFFFF;strokeColor=#ff6666;" parent="sistema" vertex="1">
                    <mxGeometry x="350" y="450" width="120" height="60" as="geometry"/>
                </mxCell>
                <mxCell id="gerenciarDicas" value="Gerenciar Dicas" style="ellipse;whiteSpace=wrap;html=1;fillColor=#FFFFFF;strokeColor=#ff6666;" parent="sistema" vertex="1">
                    <mxGeometry x="50" y="550" width="120" height="60" as="geometry"/>
                </mxCell>
                <mxCell id="gerenciarNotificacoes" value="Gerenciar Notificações" style="ellipse;whiteSpace=wrap;html=1;fillColor=#FFFFFF;strokeColor=#ff6666;" parent="sistema" vertex="1">
                    <mxGeometry x="200" y="550" width="120" height="60" as="geometry"/>
                </mxCell>
                <mxCell id="usuario" value="Usuário" style="shape=umlActor;verticalLabelPosition=bottom;verticalAlign=top;html=1;outlineConnect=0;fillColor=#dae8fc;strokeColor=#6c8ebf;" parent="1" vertex="1">
                    <mxGeometry x="150" y="300" width="30" height="60" as="geometry"/>
                </mxCell>
                <mxCell id="administrador" value="Administrador" style="shape=umlActor;verticalLabelPosition=bottom;verticalAlign=top;html=1;outlineConnect=0;fillColor=#ffcccc;strokeColor=#ff6666;" parent="1" vertex="1">
                    <mxGeometry x="150" y="500" width="30" height="60" as="geometry"/>
                </mxCell>
                <mxCell id="visitante" value="Visitante" style="shape=umlActor;verticalLabelPosition=bottom;verticalAlign=top;html=1;outlineConnect=0;fillColor=#f8cecc;strokeColor=#b85450;" parent="1" vertex="1">
                    <mxGeometry x="150" y="150" width="30" height="60" as="geometry"/>
                </mxCell>
                <mxCell id="edge1" style="fillColor=#FFFFFF;" parent="1" source="visitante" target="cadastro" edge="1">
                    <mxGeometry relative="1" as="geometry"/>
                </mxCell>
                <mxCell id="edge2" style="fillColor=#FFFFFF;" parent="1" source="visitante" target="consultarReceitas" edge="1">
                    <mxGeometry relative="1" as="geometry"/>
                </mxCell>
                <mxCell id="edge3" style="fillColor=#FFFFFF;" parent="1" source="visitante" target="consultarDicas" edge="1">
                    <mxGeometry relative="1" as="geometry"/>
                </mxCell>
                <mxCell id="edge4" style="fillColor=#FFFFFF;" parent="1" source="usuario" target="login" edge="1">
                    <mxGeometry relative="1" as="geometry"/>
                </mxCell>
                <mxCell id="edge5" style="fillColor=#FFFFFF;" parent="1" source="usuario" target="logout" edge="1">
                    <mxGeometry relative="1" as="geometry"/>
                </mxCell>
                <mxCell id="edge6" style="fillColor=#FFFFFF;" parent="1" source="usuario" target="criarHorta" edge="1">
                    <mxGeometry relative="1" as="geometry"/>
                </mxCell>
                <mxCell id="edge7" style="fillColor=#FFFFFF;" parent="1" source="usuario" target="gerenciarHorta" edge="1">
                    <mxGeometry relative="1" as="geometry"/>
                </mxCell>
                <mxCell id="edge8" style="fillColor=#FFFFFF;" parent="1" source="usuario" target="visualizarHortas" edge="1">
                    <mxGeometry relative="1" as="geometry"/>
                </mxCell>
                <mxCell id="edge9" style="fillColor=#FFFFFF;" parent="1" source="usuario" target="registrarColheita" edge="1">
                    <mxGeometry relative="1" as="geometry"/>
                </mxCell>
                <mxCell id="edge10" style="fillColor=#FFFFFF;" parent="1" source="usuario" target="visualizarColheitas" edge="1">
                    <mxGeometry relative="1" as="geometry"/>
                </mxCell>
                <mxCell id="edge11" style="fillColor=#FFFFFF;" parent="1" source="usuario" target="usarChat" edge="1">
                    <mxGeometry relative="1" as="geometry"/>
                </mxCell>
                <mxCell id="edge12" style="fillColor=#FFFFFF;" parent="1" source="usuario" target="visualizarDashboard" edge="1">
                    <mxGeometry relative="1" as="geometry"/>
                </mxCell>
                <mxCell id="edge13" style="fillColor=#FFFFFF;" parent="1" source="administrador" target="gerenciarUsuarios" edge="1">
                    <mxGeometry relative="1" as="geometry"/>
                </mxCell>
                <mxCell id="edge14" style="fillColor=#FFFFFF;" parent="1" source="administrador" target="gerenciarSistema" edge="1">
                    <mxGeometry relative="1" as="geometry"/>
                </mxCell>
                <mxCell id="edge15" style="fillColor=#FFFFFF;" parent="1" source="administrador" target="visualizarRelatorios" edge="1">
                    <mxGeometry relative="1" as="geometry"/>
                </mxCell>
                <mxCell id="edge16" style="fillColor=#FFFFFF;" parent="1" source="administrador" target="gerenciarDicas" edge="1">
                    <mxGeometry relative="1" as="geometry"/>
                </mxCell>
                <mxCell id="edge17" style="fillColor=#FFFFFF;" parent="1" source="administrador" target="gerenciarNotificacoes" edge="1">
                    <mxGeometry relative="1" as="geometry"/>
                </mxCell>
                <mxCell id="include1" style="fillColor=#FFFFFF;" edge="1" parent="1" source="criarHorta" target="login">
                    <mxGeometry relative="1" as="geometry"/>
                </mxCell>
                <mxCell id="includeLabel1" value="&lt;&lt;include&gt;&gt;" style="text;html=1;strokeColor=none;fillColor=#FFFFFF;align=center;verticalAlign=middle;whiteSpace=wrap;rounded=0;fontSize=10;fontStyle=2;" vertex="1" parent="1">
                    <mxGeometry x="320" y="130" width="60" height="20" as="geometry"/>
                </mxCell>
                <mxCell id="include2" style="fillColor=#FFFFFF;" edge="1" parent="1" source="gerenciarHorta" target="login">
                    <mxGeometry relative="1" as="geometry"/>
                </mxCell>
                <mxCell id="includeLabel2" value="&lt;&lt;include&gt;&gt;" style="text;html=1;strokeColor=none;fillColor=#FFFFFF;align=center;verticalAlign=middle;whiteSpace=wrap;rounded=0;fontSize=10;fontStyle=2;" vertex="1" parent="1">
                    <mxGeometry x="380" y="130" width="60" height="20" as="geometry"/>
                </mxCell>
                <mxCell id="include3" style="fillColor=#FFFFFF;" edge="1" parent="1" source="registrarColheita" target="login">
                    <mxGeometry relative="1" as="geometry"/>
                </mxCell>
                <mxCell id="includeLabel3" value="&lt;&lt;include&gt;&gt;" style="text;html=1;strokeColor=none;fillColor=#FFFFFF;align=center;verticalAlign=middle;whiteSpace=wrap;rounded=0;fontSize=10;fontStyle=2;" vertex="1" parent="1">
                    <mxGeometry x="280" y="180" width="60" height="20" as="geometry"/>
                </mxCell>
                <mxCell id="extend1" style="fillColor=#FFFFFF;" edge="1" parent="1" source="logout" target="visualizarDashboard">
                    <mxGeometry relative="1" as="geometry"/>
                </mxCell>
                <mxCell id="extendLabel1" value="&lt;&lt;extend&gt;&gt;" style="text;html=1;strokeColor=none;fillColor=#FFFFFF;align=center;verticalAlign=middle;whiteSpace=wrap;rounded=0;fontSize=10;fontStyle=2;" vertex="1" parent="1">
                    <mxGeometry x="480" y="200" width="60" height="20" as="geometry"/>
                </mxCell>
                <mxCell id="extend2" style="fillColor=#FFFFFF;" edge="1" parent="1" source="visualizarColheitas" target="gerenciarHorta">
                    <mxGeometry relative="1" as="geometry"/>
                </mxCell>
                <mxCell id="extendLabel2" value="&lt;&lt;extend&gt;&gt;" style="text;html=1;strokeColor=none;fillColor=#FFFFFF;align=center;verticalAlign=middle;whiteSpace=wrap;rounded=0;fontSize=10;fontStyle=2;" vertex="1" parent="1">
                    <mxGeometry x="280" y="220" width="60" height="20" as="geometry"/>
                </mxCell>
                <mxCell id="heranca" style="fillColor=#FFFFFF;" parent="1" source="administrador" target="usuario" edge="1">
                    <mxGeometry relative="1" as="geometry">
                        <mxPoint x="165" y="450" as="targetPoint"/>
                    </mxGeometry>
                </mxCell>
                <mxCell id="titulo" value="Diagrama de Casos de Uso - Sistema Alimentando o Futuro" style="text;html=1;strokeColor=none;fillColor=#FFFFFF;align=center;verticalAlign=middle;whiteSpace=wrap;rounded=0;fontSize=16;fontStyle=1;" parent="1" vertex="1">
                    <mxGeometry x="400" y="10" width="400" height="30" as="geometry"/>
                </mxCell>
            </root>
        </mxGraphModel>
    </diagram>
</mxfile>